<?xml version="1.0" standalone="no"?><!DOCTYPE svg PUBLIC "-//W3C//DTD SVG 1.1//EN" "http://www.w3.org/Graphics/SVG/1.1/DTD/svg11.dtd"><svg t="1575123465269" class="icon" viewBox="0 0 1024 1024" version="1.1" xmlns="http://www.w3.org/2000/svg" p-id="1123" xmlns:xlink="http://www.w3.org/1999/xlink" width="200" height="200"><defs><style type="text/css"></style></defs><path d="M973.024495 273.115429q22.820571 32.548571 10.313143 73.728l-157.110857 517.705143q-10.825143 36.571429-43.739429 61.44t-69.997714 24.868571l-527.433143 0q-44.032 0-84.845714-30.573714t-56.832-75.117714q-13.677714-38.253714-1.170286-72.557714 0-2.267429 1.682286-15.433143t2.267429-21.138286q0.585143-4.534857-1.682286-12.288t-1.682286-11.117714q1.170286-6.290286 4.534857-11.995429t9.435429-13.458286 9.435429-13.458286q13.165714-21.723429 25.746286-52.297143t17.115429-52.297143q1.682286-5.705143 0.292571-17.115429t-0.292571-16.018286q1.682286-6.290286 9.728-16.018286t9.728-13.165714q11.995429-20.553143 23.990857-52.589714t14.262857-51.419429q0.585143-5.12-1.462857-18.285714t0.292571-16.018286q2.267429-7.460571 12.580571-17.408t12.580571-12.873143q10.825143-14.848 24.283429-48.274286t15.725714-55.149714q0.585143-4.534857-1.682286-14.555429t-1.170286-15.140571q1.170286-4.534857 5.12-10.313143t10.313143-13.165714 9.728-11.995429q4.534857-6.875429 9.435429-17.408t8.557714-19.968 9.142857-20.553143 11.117714-18.285714 15.140571-13.458286 20.553143-6.582857 27.136 3.145143l-0.585143 1.682286q21.723429-5.12 29.110857-5.12l434.834286 0q42.276571 0 65.170286 32.036571t10.313143 74.313143l-156.598857 517.705143q-20.553143 68.022857-40.886857 87.698286t-73.435429 19.748571l-496.566857 0q-15.433143 0-21.723429 8.557714-6.290286 9.142857-0.585143 24.576 13.677714 40.009143 82.285714 40.009143l527.433143 0q16.603429 0 32.036571-8.850286t19.968-23.698286l171.446857-564.004571q4.022857-12.580571 2.852571-32.548571 21.723429 8.557714 33.718857 24.576zM364.987924 274.285714q-2.267429 7.460571 1.170286 12.873143t11.410286 5.412571l347.428571 0q7.460571 0 14.555429-5.412571t9.435429-12.873143l11.995429-36.571429q2.267429-7.460571-1.170286-12.873143t-11.410286-5.412571l-347.428571 0q-7.460571 0-14.555429 5.412571t-9.435429 12.873143zM317.591352 420.571429q-2.267429 7.460571 1.170286 12.873143t11.410286 5.412571l347.428571 0q7.460571 0 14.555429-5.412571t9.435429-12.873143l11.995429-36.571429q2.267429-7.460571-1.170286-12.873143t-11.410286-5.412571l-347.428571 0q-7.460571 0-14.555429 5.412571t-9.435429 12.873143z" p-id="1124"></path></svg>